# xmcd
#
# Track frame offsets:
# 150
# 10218
# 20349
# 30216
# 41242
# 45686
# 58429
# 71326
# 80932
#
# Disc length: 1245 seconds
#
# Revision: 0
# Processed by: cddbd v1.5.1PL0 Copyright (c) Steve Scherf et al.
# Submitted via: Audion 3.0.2 (http://www.panic.com/audion/)
#
DISCID=7404db09
DTITLE=I Am Bones - If You Really Love Me, Send Me More Medical Supplies
DYEAR=1900
DGENRE=
TTITLE0=The Beat Is Satan
TTITLE1=Get with the Program
TTITLE2=Everybody, Act Sober
TTITLE3=Talk to the Hand
TTITLE4=Godspeed, Suburbia
TTITLE5=Walk, Don't Run
TTITLE6=Oktoberfest vs. Morrissey
TTITLE7=We Built It on Kodak Moments
TTITLE8=All the Relatives Agree
EXTD=
EXTT0=
EXTT1=
EXTT2=
EXTT3=
EXTT4=
EXTT5=
EXTT6=
EXTT7=
EXTT8=
PLAYORDER=
